<!DOCTYPE svg PUBLIC "-//W3C//DTD SVG 1.1//EN" "http://www.w3.org/Graphics/SVG/1.1/DTD/svg11.dtd">
<!-- Uploaded to: SVG Repo, www.svgrepo.com, Transformed by: SVG Repo Mixer Tools -->
<svg fill="#000000" height="800px" width="800px" version="1.1" id="Layer_1" xmlns="http://www.w3.org/2000/svg" xmlns:xlink="http://www.w3.org/1999/xlink" viewBox="-51.2 -51.2 614.40 614.40" xml:space="preserve" transform="matrix(-1, 0, 0, 1, 0, 0)rotate(0)">
<g id="SVGRepo_bgCarrier" stroke-width="0">
<path transform="translate(-51.2, -51.2), scale(19.2)" d="M16,29.45111120616396C18.916749737886175,30.072338417806534,22.421544290698225,29.86339975929481,24.568809056878994,27.793953865857894C26.68661607313807,25.75289814608073,25.683975125002476,22.23447335668483,26.43790862535804,19.391482099858166C27.13079778316681,16.778681611922178,29.537372323627746,14.441653177846055,28.799309654403594,11.84125219510028C28.058373403900717,9.230726782691846,25.180674706581158,7.948818409786587,22.81357017936343,6.621925191262646C20.700737088571348,5.437565198786854,18.420909288120992,4.743798968860804,16,4.666530087590218C13.508571483397247,4.587010423145065,11.046745817756515,4.974799814732427,8.862924477732722,6.176658286113959C6.443620968030987,7.508113549732924,3.8213287570097694,9.140762196978331,3.051402507728774,11.792745636169059C2.2869915886445598,14.42573171768145,3.7057836445701025,17.151141587986892,4.970587656330604,19.583673308332525C6.064124342290191,21.686815495757873,7.961113267728204,23.05249804756219,9.727748257169978,24.633013899475046C11.741874935397803,26.43494761058395,13.356757359779252,28.888137210229324,16,29.45111120616396" fill="#7ed0ec" strokewidth="0"/>
</g>
<g id="SVGRepo_tracerCarrier" stroke-linecap="round" stroke-linejoin="round"/>
<g id="SVGRepo_iconCarrier"> <g> <g> <path d="M255.633,0C145.341,0.198,55.994,89.667,55.994,200.006v278.66c0,14.849,17.953,22.285,28.453,11.786l38.216-39.328 l54.883,55.994c6.51,6.509,17.063,6.509,23.572,0L256,451.124l54.883,55.994c6.509,6.509,17.062,6.509,23.571,0l54.884-55.994 l38.216,39.327c10.499,10.499,28.453,3.063,28.453-11.786V201.719C456.006,91.512,365.84-0.197,255.633,0z M172.664,266.674 c-27.572,0-50.001-22.429-50.001-50.001s22.43-50.001,50.001-50.001s50.001,22.43,50.001,50.001S200.236,266.674,172.664,266.674z M339.336,266.674c-27.572,0-50.001-22.429-50.001-50.001s22.43-50.001,50.001-50.001s50.001,22.43,50.001,50.001 S366.908,266.674,339.336,266.674z"/> </g> </g> </g>
</svg>